<svg id="Layer_1" data-name="Layer 1" xmlns="http://www.w3.org/2000/svg" viewBox="0 0 48 48"><defs><style>.cls-1{fill:#212121;}.cls-2{fill:#fff;}</style></defs><title>icon</title><rect class="cls-1" width="48" height="48"/><path class="cls-2" d="M10.9,34.3C6.23,27.41,9.52,22,9.52,22c-.77-.22-3.22,1.38-3.22,1.38,1.38-5,8.94-9.33,8.94-9.33-.84-.31-3.22.3-3.22.3A14.88,14.88,0,0,1,25.8,10.64c.22-1.3,4-3.59,4-3.59a7,7,0,0,0-.53,2.45,5.09,5.09,0,0,1,1.61-1.38c-.68,1.6,0,5,0,5,2,2,4.21,8.88,4.21,8.88l.84,1.22c1.07,1.53.68,3.94-.38,4.51-4,2.15-4.36-1.76-4.36-1.76-3.29-.38-5.74-4.06-5.74-4.06-4.43,2.3-2,8.77,0,11.25,2.46,3.19.66,8.33.66,8.33S15.51,41.11,10.9,34.3Z"/></svg>